<svg width="165" height="88" viewBox="0 0 165 88" fill="none" xmlns="http://www.w3.org/2000/svg">
<ellipse cx="126.452" cy="40.5" rx="30.9395" ry="31.5" fill="#D5D5D5"/>
<ellipse cx="97.5244" cy="51.0418" rx="20.5244" ry="20.9582" fill="#D5D5D5"/>
<rect x="97.5244" y="30.0837" width="32.9857" height="41.9163" fill="#D5D5D5"/>
<ellipse cx="13.8126" cy="17.9462" rx="13.8126" ry="17.9462" transform="matrix(-1 0 0 1 165 36.1076)" fill="#D5D5D5"/>
<rect width="22.1989" height="35.8924" transform="matrix(-1 0 0 1 151.187 36.1076)" fill="#D5D5D5"/>
<ellipse cx="66.3112" cy="44" rx="41.487" ry="44" fill="#E3E3E3"/>
<ellipse cx="27.5214" cy="58.7251" rx="27.5214" ry="29.2749" fill="#E3E3E3"/>
<rect x="27.5214" y="29.4502" width="44.2308" height="58.5498" fill="#E3E3E3"/>
<ellipse cx="18.5215" cy="25.0677" rx="18.5215" ry="25.0677" transform="matrix(-1 0 0 1 118 37.8645)" fill="#E3E3E3"/>
<rect width="29.7667" height="50.1355" transform="matrix(-1 0 0 1 99.4785 37.8645)" fill="#E3E3E3"/>
</svg>
