<svg width="151" height="158" viewBox="0 0 151 158" fill="none" xmlns="http://www.w3.org/2000/svg">
<path fill-rule="evenodd" clip-rule="evenodd" d="M145.513 75.586C141.8 76.3769 137.949 76.793 134 76.793C103.624 76.793 79 52.1687 79 21.793C79 14.0509 80.5997 6.68237 83.4866 0C58.6382 5.29253 40 27.3662 40 53.793C40 84.1687 64.6243 108.793 95 108.793C117.634 108.793 137.074 95.1215 145.513 75.586Z" fill="url(#paint0_linear_0_1)"/>
<path fill-rule="evenodd" clip-rule="evenodd" d="M15 99.6258C10.9062 99.5581 7.60354 95.3356 7.6 90.1351L7.6 90.1267L7.6 90.1183C7.60002 90.0788 7.60024 90.0394 7.60065 90H7.59935C7.59975 90.0394 7.59997 90.0788 7.6 90.1183L7.59999 90.1267L7.6 90.1351C7.59642 95.3779 4.23993 99.6267 0.0999999 99.6267C0.0666152 99.6267 0.0332815 99.6264 0 99.6258V99.6275C0.0332794 99.6269 0.0666111 99.6267 0.0999938 99.6267C4.20874 99.6267 7.54581 103.812 7.59934 109H7.60065C7.65374 103.854 10.9372 99.6947 15 99.6275V99.6258Z" fill="white"/>
<path fill-rule="evenodd" clip-rule="evenodd" d="M93 140.732C86.4463 140.607 81.16 132.82 81.16 123.233C81.16 123.155 81.1604 123.078 81.1611 123H81.159C81.1597 123.078 81.16 123.155 81.16 123.233C81.16 132.898 75.7874 140.733 69.16 140.733C69.1066 140.733 69.0533 140.733 69 140.732V140.735C69.0533 140.734 69.1066 140.733 69.16 140.733C75.734 140.733 81.0733 148.443 81.159 158H81.1611C81.246 148.52 86.4996 140.859 93 140.735V140.732Z" fill="white"/>
<path fill-rule="evenodd" clip-rule="evenodd" d="M151 123.599C147.996 123.546 145.573 120.209 145.573 116.1C145.573 116.067 145.573 116.033 145.574 116H145.573C145.573 116.033 145.573 116.067 145.573 116.1C145.573 120.24 143.113 123.597 140.078 123.6C143.089 123.603 145.534 126.906 145.573 131H145.574C145.613 126.937 148.021 123.654 151 123.601V123.599ZM140 123.599C140.023 123.6 140.046 123.6 140.069 123.6C140.046 123.6 140.023 123.6 140 123.601V123.599Z" fill="white"/>
<defs>
<linearGradient id="paint0_linear_0_1" x1="181.5" y1="-12.707" x2="8" y2="130.793" gradientUnits="userSpaceOnUse">
<stop stop-color="#313131"/>
<stop offset="0.745" stop-color="#EAEAEA"/>
</linearGradient>
</defs>
</svg>
