<svg width="105" height="60" viewBox="0 0 105 60" fill="none" xmlns="http://www.w3.org/2000/svg">
<rect x="20.362" width="3" height="42" rx="1.5" transform="rotate(29 20.362 0)" fill="#D9D9D9"/>
<path d="M80.2586 5.76637C80.6603 5.04181 81.5732 4.78002 82.2978 5.18165C83.0223 5.58328 83.2841 6.49624 82.8825 7.2208L63.9749 41.331C63.5733 42.0555 62.6603 42.3173 61.9358 41.9157C61.2112 41.5141 60.9494 40.6011 61.3511 39.8765L80.2586 5.76637Z" fill="#D9D9D9"/>
<rect x="40.978" width="3" height="66.7953" rx="1.5" transform="rotate(29 40.978 0)" fill="#D9D9D9"/>
<rect x="101.978" y="2" width="3" height="59.3598" rx="1.5" transform="rotate(29 101.978 2)" fill="#D9D9D9"/>
<rect x="58.7155" y="6" width="3" height="50.9798" rx="1.5" transform="rotate(29 58.7155 6)" fill="#D9D9D9"/>
</svg>
